<?xml version="1.0" encoding="UTF-8" standalone="no"?>
<svg
   width="420"
   height="194.10001"
   viewBox="0 0 111.12499 51.355628"
   version="1.1"
   id="svg8"
   xmlns:xlink="http://www.w3.org/1999/xlink"
   xmlns="http://www.w3.org/2000/svg"
   xmlns:svg="http://www.w3.org/2000/svg"
   xmlns:rdf="http://www.w3.org/1999/02/22-rdf-syntax-ns#"
   xmlns:cc="http://creativecommons.org/ns#"
   xmlns:dc="http://purl.org/dc/elements/1.1/">
  <defs
     id="defs2">
    <linearGradient
       xlink:href="#linearGradient18"
       id="linearGradient20"
       x1="32.733643"
       y1="123.19559"
       x2="164.28169"
       y2="123.19559"
       gradientUnits="userSpaceOnUse"
       gradientTransform="matrix(0.80452282,0,0,0.80452282,-23.689082,-76.468481)" />
    <linearGradient
       id="linearGradient18">
      <stop
         style="stop-color:#e60000;stop-opacity:1"
         offset="0"
         id="stop853" />
      <stop
         style="stop-color:#ff9600;stop-opacity:1"
         offset="0.16666667"
         id="stop855" />
      <stop
         style="stop-color:#f0dc00;stop-opacity:1"
         offset="0.33333334"
         id="stop849" />
      <stop
         style="stop-color:#00c822;stop-opacity:1"
         offset="0.5"
         id="stop845" />
      <stop
         style="stop-color:#00d2ff;stop-opacity:1"
         offset="0.66666669"
         id="stop847" />
      <stop
         style="stop-color:#0046ff;stop-opacity:1"
         offset="0.83333331"
         id="stop857" />
      <stop
         style="stop-color:#ea00ff;stop-opacity:1"
         offset="1"
         id="stop16" />
    </linearGradient>
  </defs>
  <metadata
     id="metadata5">
    <rdf:RDF>
      <cc:Work
         rdf:about="">
        <dc:format>image/svg+xml</dc:format>
        <dc:type
           rdf:resource="http://purl.org/dc/dcmitype/StillImage" />
      </cc:Work>
    </rdf:RDF>
  </metadata>
  <path
     id="text12-3"
     style="font-style:normal;font-weight:normal;font-size:67.3963px;line-height:1.25;font-family:sans-serif;fill:url(#linearGradient20);fill-opacity:1;stroke:none;stroke-width:0.264584"
     d="m 80.935547,2.1191406 c -0.942885,-0.026775 -2.05085,0.5634029 -2.008839,1.6272221 0.128383,4.662895 1.218205,9.2879823 1.461964,13.8766843 -0.04582,0.516802 0.174761,1.20965 -0.04723,1.626714 -4.914281,2.142946 -9.026567,5.88845 -12.096539,10.243324 -2.925586,4.263527 -5.013008,9.395849 -4.590551,14.647236 0.164783,1.927731 1.101774,4.077369 3.077239,4.719427 1.910795,0.544014 3.988881,0.163698 5.811332,-0.532341 4.019528,-1.736718 6.780388,-5.427001 8.642977,-9.265605 0.418752,-0.862291 0.810574,-1.740743 1.122698,-2.64774 0.321559,2.9323 0.432221,5.940687 1.382812,8.75586 0.308294,0.675922 0.73499,1.520452 1.488282,1.707031 0.749397,0.06173 1.136183,-0.729691 1.703124,-1.089844 0.498416,-0.442944 0.831533,-1.067168 0.601207,-1.737114 C 85.995267,30.431844 84.542353,16.807894 83.03125,3.1933594 82.826748,2.2247108 81.73618,2.1641017 80.935547,2.1191406 Z m -64.894531,1.578125 c -0.912066,-0.072821 -1.655539,0.7214358 -1.63182,1.6142722 -0.205776,3.101472 0.457765,6.1739062 0.860058,9.2347492 0.567858,3.183566 0.955662,6.431948 0.603793,9.662697 0.05588,0.579866 -0.859259,0.401848 -1.249874,0.617427 -2.860016,0.667604 -5.7430158,1.251189 -8.5997355,1.921636 -1.2034694,0.0028 -2.7272731,-0.326882 -3.6035156,0.726562 -0.615138,1.04059 -0.3496431,2.82098 0.9722155,3.163228 1.468839,0.386614 3.0378319,0.09135 4.4905907,-0.249658 2.1595079,-0.537834 4.2942759,-1.334479 6.4111219,-1.77803 0.78869,-0.148439 1.593176,-0.169941 2.39365,-0.16093 0.338653,5.430108 0.279507,10.889795 0.932327,16.296229 0.206093,1.496289 0.464109,2.984256 0.739548,4.469396 1.171316,-0.397461 2.660891,-0.787324 3.162109,-2.048828 0.192531,-1.353428 -0.0043,-2.746348 -0.06228,-4.109318 -0.295639,-3.085639 -0.823523,-6.156448 -0.77498,-9.267398 -0.04642,-2.06528 0.0595,-4.127174 0.06383,-6.191644 2.734163,-0.551575 5.666771,-0.98874 8.472636,-1.527735 2.161894,-0.39421 4.327354,-0.801654 6.435567,-1.429296 -0.159214,3.615546 -0.283339,7.238271 -0.455078,10.849609 0.208698,3.509722 0.966814,7.028796 2.460937,10.22461 0.727007,1.429489 1.692788,3.071403 3.369141,3.466797 1.106121,0.186991 2.185514,-0.269761 3.240234,-0.542969 3.175646,-1.154078 5.345329,-3.974234 7.091038,-6.732131 1.965451,-3.229176 3.294614,-6.799731 4.468928,-10.37892 0.177351,-0.548143 0.318177,-1.106677 0.469331,-1.662387 0.488443,4.453261 0.737341,8.940671 1.497379,13.359275 0.232809,1.311886 0.635216,2.588477 1.337677,3.727531 0.250606,0.430336 0.471659,1.130182 0.950882,1.241319 1.179368,0.0974 2.269265,-0.783287 2.815024,-1.764182 0.23748,-0.621491 -0.09907,-1.329194 -0.300181,-1.935036 -0.323465,-0.635584 -0.605276,-1.350176 -1.220703,-1.763672 -1.234241,-8.529316 -2.469555,-17.058478 -3.703125,-25.587891 -0.736248,-0.105082 -1.500495,-0.401468 -2.218649,-0.395474 -1.055597,0.566991 -1.171274,1.934686 -1.440089,2.982889 -0.967044,5.220757 -1.672575,10.510405 -3.164694,15.61694 -0.987981,3.158404 -2.33701,6.423503 -4.953911,8.580801 -0.991626,0.698758 -2.278169,1.172917 -3.486499,0.954874 -1.268238,-0.692145 -1.511435,-2.292419 -1.952378,-3.540027 -0.73606,-2.893278 -1.166931,-5.829864 -1.128571,-8.809078 -0.04281,-3.162763 -0.03313,-6.349395 -0.0068,-9.498347 0.656824,-0.474237 0.815956,-1.508539 0.103501,-2.010545 -0.241518,-0.542495 -0.01498,-1.268438 -0.06951,-1.886702 -0.01457,-0.631012 0.171791,-1.321683 -0.353044,-1.801521 -0.48013,-0.794526 -1.294478,-1.761751 -2.334313,-1.470499 -0.644063,0.02485 -0.759151,0.371304 -0.668631,0.991071 -0.01872,0.991615 -0.07693,1.982053 -0.113548,2.973118 -5.020629,0.770399 -9.840386,2.450711 -14.785156,3.56836 -0.529854,0.08046 -1.374721,0.445511 -1.206901,-0.431586 C 19.153902,16.908793 18.452284,10.842869 17.680825,4.7897045 17.542882,4.0756915 16.699349,3.7165453 16.041016,3.6972656 Z M 98.302734,15.167969 c -2.173189,0.08624 -4.01861,1.524098 -5.172887,3.285602 -2.280018,3.436787 -2.819524,7.644329 -3.318501,11.645254 -0.389695,3.486105 -0.468542,7.009789 -0.25953,10.510377 0.254043,2.603581 0.759832,5.510478 2.893944,7.271465 1.819198,1.531317 4.431905,1.400379 6.614237,0.899531 3.041373,-0.772971 5.404813,-3.159277 7.014753,-5.756864 2.47007,-4.109495 3.2941,-9.075549 2.78692,-13.808273 -0.28325,-3.487048 -0.94941,-7.061414 -2.85062,-10.058891 -1.23218,-1.910299 -3.11492,-3.554278 -5.43672,-3.867511 -0.750199,-0.11952 -1.512846,-0.165018 -2.271596,-0.12069 z m 1.404297,3.367187 c 2.100439,0.132415 3.461039,2.014895 4.275719,3.763376 1.26093,2.851085 1.47474,6.070186 1.59733,9.18389 -0.0866,2.977997 -0.40077,5.999888 -1.69368,8.720038 -1.22474,2.57435 -3.74116,4.697517 -6.681209,4.792163 -1.306929,0.141656 -2.922681,-0.0042 -3.62316,-1.295404 -0.967622,-1.907782 -0.764844,-4.13848 -0.82521,-6.214023 0.02827,-3.848126 0.487347,-7.613473 1.211607,-11.384199 0.603636,-2.433273 1.338186,-5.0408 3.19901,-6.830093 0.687927,-0.615853 1.634501,-0.846805 2.539593,-0.735748 z m -18.964843,6.03711 c 0.703386,0.393694 0.564018,1.40694 0.633813,2.105854 -0.03709,3.5186 -1.706593,7.002148 -3.482018,9.938018 -1.841646,2.906927 -4.097286,5.870829 -7.130311,7.653393 -0.659373,0.328117 -1.390408,0.700774 -2.134766,0.654297 -1.111499,-1.48977 -1.043285,-3.519747 -0.803109,-5.28633 0.550728,-3.585044 1.939076,-7.024238 4.159542,-9.938464 2.117585,-2.702222 5.122083,-5.237745 8.756849,-5.126768 z" />
  <g
     aria-label="tudo"
     id="text12"
     style="font-size:67.3963px;line-height:1.25;stroke-width:0.264584">
    <path
       d="m 16.07248,27.919453 q -1.447967,0 -2.895935,0.394901 -1.447967,0.3949 -2.895934,0.855617 -1.3821511,0.3949 -2.8301185,0.7898 -1.3821507,0.329084 -2.8959348,0.329084 -0.8556171,0 -1.3821507,-0.329084 -0.5265336,-0.329083 -0.5265336,-1.316334 0,-0.7898 0.3949002,-1.053067 0.4607169,-0.329084 1.0530672,-0.329084 0.658167,-0.06582 1.316334,0 0.7239837,0.06582 1.1188839,-0.06582 0.5265336,-0.131634 1.9086843,-0.460717 1.4479674,-0.329084 3.027568,-0.658167 1.579601,-0.329084 2.961752,-0.658167 1.447967,-0.329084 1.974501,-0.526534 0,-0.19745 0,-0.658167 0.06582,-0.526534 0.06582,-1.053067 0.06582,-0.59235 0.06582,-1.053067 V 21.4036 q 0,-1.974501 -0.263267,-3.817369 Q 16.006664,15.677547 15.67758,13.768863 15.414313,11.860178 15.151046,9.9514941 14.88778,8.0428098 14.88778,6.1341255 q 0,-0.658167 0.131633,-1.2505173 0.19745,-0.658167 1.053067,-0.658167 0.329084,0 0.658167,0.1974501 0.3949,0.1316334 0.460717,0.5923503 l 2.303585,19.0210264 q 0.06582,0.06582 0.131633,0.06582 h 0.19745 q 0.658167,0 2.040318,-0.329084 1.382151,-0.329083 3.093385,-0.7898 1.711234,-0.460717 3.619918,-0.987251 1.974501,-0.526533 3.751552,-0.921434 1.777051,-0.460716 3.225019,-0.658167 1.447967,-0.263266 2.237767,-0.06582 0.263267,0.06582 0.855618,0.658167 0.59235,0.526533 0.723983,0.7898 0.131634,0.658167 -1.118884,1.316334 -1.250517,0.59235 -3.290835,1.184701 -1.974501,0.526533 -4.409719,0.98725 -2.435218,0.460717 -4.672985,0.855617 -2.171951,0.329084 -3.751552,0.658167 -1.579601,0.263267 -1.908685,0.394901 v 1.316334 q 0,0.855617 -0.06582,1.908684 0,0.98725 0,1.908684 v 1.316334 q 0,3.356652 0.460717,6.58167 0.460716,3.159202 0.460716,6.38422 0,0.460717 -0.263266,0.789801 -0.263267,0.263266 -0.658167,0.526533 -0.394901,0.19745 -0.789801,0.3949 -0.3949,0.131634 -0.59235,0.197451 -0.526534,-2.830119 -0.7898,-5.133703 -0.197451,-2.369401 -0.329084,-4.672986 -0.06582,-2.303584 -0.19745,-4.870436 -0.06582,-2.632668 -0.263267,-5.923503 z"
       style="font-family:'Waiting for the Sunrise';-inkscape-font-specification:'Waiting for the Sunrise'"
       id="path2689" />
    <path
       d="m 42.59661,48.520081 q -1.250518,0.460716 -2.303585,-0.197451 -0.98725,-0.723983 -1.777051,-2.106134 -0.7898,-1.447967 -1.38215,-3.225018 -0.592351,-1.842868 -0.921434,-3.619919 -0.329084,-1.777051 -0.460717,-3.225018 -0.06582,-1.447968 0.06582,-2.106135 0,-0.658167 0.06582,-2.040317 0.06582,-1.382151 0.131634,-3.093385 0.06582,-1.777051 0.131633,-3.619919 0.131633,-1.908684 0.19745,-3.685735 0.06582,-1.777051 0.131634,-3.093385 0.06582,-1.382151 0.06582,-2.040318 0.131634,0 0.19745,-0.06582 l 0.19745,-0.06582 q 0.658167,0 1.118884,0.59235 0.460717,0.592351 0.789801,1.118884 0,0.921434 -0.06582,3.290835 0,2.369401 0,5.067886 0,2.698485 0,5.133703 0.06582,2.369401 0.06582,3.290835 0.06582,0.7898 0.263267,2.501034 0.263266,1.645418 0.658167,3.422469 0.3949,1.711234 1.053067,3.159202 0.723984,1.38215 1.777051,1.5796 2.764301,0 4.607169,-2.040317 1.908684,-2.040318 3.159201,-5.133703 1.250518,-3.093385 1.974501,-6.647487 0.789801,-3.619918 1.316334,-6.77912 0.526534,-3.159202 0.921434,-5.265336 0.460717,-2.171951 1.053067,-2.369401 l 1.579601,0.329083 3.685735,25.471063 q 0.394901,0.197451 0.658167,0.592351 0.263267,0.3949 0.460717,0.855617 0.263267,0.460717 0.329084,0.921434 0.131633,0.460717 0.131633,0.658167 -0.131633,0.460717 -0.7898,0.98725 -0.658167,0.526534 -1.118884,0.59235 h -0.263267 q -0.06582,0 -0.131633,0 -0.131634,-0.19745 -0.3949,-0.59235 -0.197451,-0.460717 -0.460717,-0.921434 -0.263267,-0.460717 -0.460717,-0.921433 -0.131634,-0.526534 -0.19745,-0.658167 -0.19745,-0.658167 -0.460717,-2.040318 -0.19745,-1.382151 -0.3949,-3.027568 -0.197451,-1.711235 -0.394901,-3.554102 -0.131633,-1.908685 -0.329083,-3.619919 -0.131634,-1.777051 -0.329084,-3.093385 -0.131633,-1.38215 -0.329083,-2.040317 -0.329084,1.513784 -0.921434,3.619918 -0.59235,2.040318 -1.513784,4.343902 -0.855617,2.303585 -1.974501,4.541353 -1.118884,2.171951 -2.566851,4.080635 -1.382151,1.842868 -3.093385,3.159202 -1.711235,1.250517 -3.751552,1.579601 z"
       style="font-family:'Waiting for the Sunrise';-inkscape-font-specification:'Waiting for the Sunrise'"
       id="path2691" />
    <path
       d="m 64.118671,42.925661 q 0,-3.554102 1.38215,-7.17402 1.447968,-3.685736 3.817369,-6.844937 2.369401,-3.159202 5.39697,-5.59442 3.093384,-2.501034 6.252586,-3.751552 0,-1.974501 -0.19745,-3.883185 -0.19745,-1.908684 -0.460717,-3.817369 -0.263267,-1.9745006 -0.526534,-3.9490016 -0.263266,-1.974501 -0.329083,-4.0806354 0,-0.658167 0.460717,-0.9214339 0.526533,-0.2632668 1.053067,-0.2632668 0.3949,0 0.921434,0.1316334 0.59235,0.065817 0.658167,0.7239838 l 4.475536,41.2012545 q 0,0 -0.131634,0.263267 -0.131633,0.19745 -0.3949,0.460717 -0.263267,0.19745 -0.526534,0.460717 -0.263266,0.19745 -0.3949,0.329083 0,0.06582 -0.19745,0.131633 -0.131633,0 -0.19745,0 -0.7898,-0.526533 -1.250517,-2.106134 -0.394901,-1.645417 -0.658167,-3.554102 -0.197451,-1.974501 -0.394901,-3.817368 -0.131633,-1.842868 -0.329083,-2.830119 -0.131634,0.526534 -0.59235,1.777051 -0.394901,1.250518 -1.184701,2.895935 -0.7898,1.645418 -1.908684,3.356652 -1.118884,1.711234 -2.632668,3.159202 -1.513784,1.447967 -3.488285,2.435217 -1.974501,0.921434 -4.343903,0.921434 -1.1847,0 -2.040317,-0.460717 -0.789801,-0.460717 -1.316334,-1.250517 -0.460717,-0.855617 -0.723984,-1.842868 -0.19745,-1.053067 -0.19745,-2.106134 z m 3.027568,-1.250517 q 0,0.263267 0.06582,0.921434 0.06582,0.59235 0.263266,1.250517 0.263267,0.658167 0.526534,1.1847 0.329084,0.460717 0.723984,0.460717 1.447967,-0.131633 3.093385,-1.250517 1.711234,-1.184701 3.290835,-2.961751 1.579601,-1.777051 2.961751,-3.949003 1.447968,-2.237767 2.369401,-4.475535 0.987251,-2.237768 1.316334,-4.343902 0.329084,-2.106135 -0.06582,-3.619919 -0.263267,-0.526534 -0.460717,-0.658167 -0.19745,-0.19745 -0.59235,-0.19745 -2.895935,0 -5.39697,1.777051 -2.501034,1.777051 -4.343902,4.475536 -1.777051,2.632668 -2.764302,5.726052 -0.98725,3.093385 -0.98725,5.660237 z"
       style="font-family:'Waiting for the Sunrise';-inkscape-font-specification:'Waiting for the Sunrise'"
       id="path2693" />
    <path
       d="m 89.984634,38.581759 q 0,-1.316334 0,-3.488285 0.06582,-2.237768 0.329083,-4.738803 0.263267,-2.566851 0.789801,-5.199519 0.526533,-2.632668 1.513784,-4.738803 0.98725,-2.106134 2.501034,-3.422468 1.513784,-1.316334 3.751552,-1.316334 3.093382,0 4.936252,1.711234 1.90869,1.711234 2.89594,4.278086 1.05306,2.501034 1.38215,5.396969 0.3949,2.830118 0.3949,5.133703 0,2.501034 -0.72399,5.396969 -0.72398,2.895935 -2.23777,5.331153 -1.51378,2.435218 -3.81736,4.080635 -2.237771,1.579601 -5.396973,1.579601 -2.040318,0 -3.290835,-0.921434 -1.250517,-0.98725 -1.908684,-2.435217 -0.592351,-1.447968 -0.855618,-3.225019 -0.263266,-1.777051 -0.263266,-3.422468 z m 2.237767,-0.789801 q 0,1.250518 0.06582,2.632668 0.06582,1.316334 0.3949,2.501035 0.329084,1.184701 1.184701,1.908684 0.855617,0.723984 2.501035,0.723984 2.895934,0 4.738806,-1.316334 1.90868,-1.316334 3.02756,-3.356652 1.11889,-2.106134 1.51379,-4.607169 0.46072,-2.501034 0.46072,-4.804619 0,-1.447967 -0.26327,-3.751552 -0.19745,-2.303584 -0.92144,-4.475535 -0.72398,-2.171952 -2.10613,-3.685736 -1.38215,-1.5796 -3.619918,-1.5796 -1.579601,0 -2.764302,1.250517 -1.118884,1.250517 -1.908684,3.225018 -0.7898,1.974501 -1.250517,4.343902 -0.3949,2.369402 -0.658167,4.541353 -0.263267,2.171951 -0.329084,3.949002 -0.06582,1.777051 -0.06582,2.501034 z"
       style="font-family:'Waiting for the Sunrise';-inkscape-font-specification:'Waiting for the Sunrise'"
       id="path2695" />
  </g>
</svg>
