<?xml version="1.0" encoding="UTF-8"?>
<svg width="327" height="361" fill="none" version="1.1" viewBox="0 0 327 361" xmlns="http://www.w3.org/2000/svg">
 <path d="m231.56 360.02c8.878-0.79144 28.458-4.0261 41.603-6.8821 10.323-2.2023 33.447-8.0865 38.678-9.8071 8.5683-2.8217 13.179-5.4369 14.487-8.1553 0.96351-1.9959 0.89469-3.1314-0.24087-5.5746-0.6194-1.2388-1.0667-2.9249-1.17-4.1981-0.17205-1.755-0.58498-2.8905-2.3744-6.194-3.4755-6.6069-5.2993-9.1533-17.515-24.879-8.3963-10.771-12.009-15.588-21.163-28.045-3.7163-5.0928-7.8456-10.53-9.1188-12.044-5.7467-6.848-15.038-16.104-18.375-18.341-1.2732-0.86-1.3421-0.895-1.7894-0.241-0.6538 0.86-0.6194 1.755 0.2065 4.405 1.6517 5.333 7.2607 17.343 11.08 23.64 3.4755 5.781 16.517 23.571 29.628 40.364 8.6715 11.149 10.598 13.73 10.426 13.902-0.3097 0.3097-33.516-8.2586-47.694-12.319-41.672-11.94-75.463-25.877-100.79-41.499-27.185-16.792-53.165-40.501-81.898-74.775-20.062-23.881-30.075-39.159-39.469-60.219-9.188-20.681-20.681-53.612-25.086-72.09-3.648-15.21-7.398-38.368-7.398-45.56 0-3.992 0.55-6.125 2.236-8.465 1.687-2.409 1.618-3.51-0.172-2.856-1.514 0.516-3.613 3.028-4.439 5.299-1.548 4.095-1.617 10.254-0.206 23.606 2.581 24.466 5.127 37.301 11.837 59.53 8.844 29.215 17.859 51.548 27.735 68.753 11.597 20.268 35.96 50.55 59.875 74.5 33.998 34.066 65.656 53.99 115.34 72.641 17.584 6.5725 45.526 15.278 63.523 19.786 1.6861 0.4129 2.9249 0.8603 2.7529 0.9979-0.1377 0.1033-2.925 0.7915-6.1252 1.5141-8.8436 1.9614-20.887 5.0928-28.561 7.3983-10.461 3.1314-29.972 10.22-31.21 11.321-0.826 0.6882-2.719 4.5422-2.478 4.9552 0.104 0.17205-0.034 0.58499-0.309 0.89468-0.929 1.1012-1.583 5.4025-0.964 6.5725 0.241 0.37851 0.826 0.82587 1.342 0.92908 0.516 0.13766 1.205 0.48178 1.583 0.79147 0.516 0.44732 1.652 0.55057 6.71 0.58496 3.338 0.0344 7.605-0.0688 9.4975-0.24088z" fill="#000"/>
</svg>
