<?xml version="1.0" encoding="UTF-8" standalone="no"?>
<svg
   xmlns:dc="http://purl.org/dc/elements/1.1/"
   xmlns:cc="http://creativecommons.org/ns#"
   xmlns:rdf="http://www.w3.org/1999/02/22-rdf-syntax-ns#"
   xmlns:svg="http://www.w3.org/2000/svg"
   xmlns="http://www.w3.org/2000/svg"
   width="59.397171mm"
   height="28.111631mm"
   viewBox="0 0 59.397171 28.111631"
   version="1.1"
   id="svg8">
  <defs
     id="defs2" />
  <metadata
     id="metadata5">
    <rdf:RDF>
      <cc:Work
         rdf:about="">
        <dc:format>image/svg+xml</dc:format>
        <dc:type
           rdf:resource="http://purl.org/dc/dcmitype/StillImage" />
        <dc:title></dc:title>
      </cc:Work>
    </rdf:RDF>
  </metadata>
  <g
     id="layer1"
     transform="translate(-56.738538,-119.60956)">
    <g
       aria-label="tudo"
       id="text12"
       style="font-style:normal;font-variant:normal;font-weight:normal;font-stretch:normal;font-size:35.2778px;line-height:1.25;font-family:'Waiting for the Sunrise';-inkscape-font-specification:'Waiting for the Sunrise';fill:#000000;fill-opacity:1;stroke:none;stroke-width:0.264583">
      <path
         d="m 65.766537,134.83873 q -0.757921,0 -1.515843,0.20671 -0.757921,0.2067 -1.515843,0.44786 -0.72347,0.20671 -1.481392,0.41341 -0.72347,0.17226 -1.515843,0.17226 -0.447862,0 -0.72347,-0.17226 -0.275608,-0.17225 -0.275608,-0.68902 0,-0.41341 0.206706,-0.55121 0.241157,-0.17226 0.551215,-0.17226 0.34451,-0.0345 0.68902,0 0.378961,0.0344 0.585667,-0.0345 0.275607,-0.0689 0.999078,-0.24116 0.757922,-0.17225 1.584745,-0.34451 0.826823,-0.17225 1.550294,-0.34451 0.757922,-0.17225 1.033529,-0.2756 0,-0.10336 0,-0.34451 0.03445,-0.27561 0.03445,-0.55122 0.03445,-0.31006 0.03445,-0.55121 v -0.37897 q 0,-1.03353 -0.137804,-1.99815 -0.137804,-0.99908 -0.310058,-1.99816 -0.137804,-0.99908 -0.275608,-1.99816 -0.137804,-0.99907 -0.137804,-1.99815 0,-0.34451 0.0689,-0.65457 0.103353,-0.34451 0.551215,-0.34451 0.172255,0 0.34451,0.10335 0.206706,0.0689 0.241157,0.31006 l 1.205784,9.95633 q 0.03445,0.0345 0.0689,0.0345 h 0.103353 q 0.34451,0 1.067981,-0.17225 0.72347,-0.17226 1.619195,-0.41341 0.895726,-0.24116 1.894804,-0.51677 1.03353,-0.2756 1.963706,-0.48231 0.930176,-0.24116 1.688098,-0.34451 0.757921,-0.1378 1.171333,-0.0344 0.137804,0.0344 0.447863,0.34451 0.310059,0.27561 0.378961,0.41341 0.0689,0.34451 -0.585667,0.68902 -0.654569,0.31006 -1.722549,0.62012 -1.033529,0.27561 -2.308215,0.51676 -1.274687,0.24116 -2.44602,0.44786 -1.136882,0.17226 -1.963706,0.34451 -0.826823,0.13781 -0.999078,0.20671 v 0.68902 q 0,0.44786 -0.03445,0.99908 0,0.51676 0,0.99908 v 0.68902 q 0,1.757 0.241157,3.44509 0.241157,1.65365 0.241157,3.34175 0,0.24116 -0.137804,0.41341 -0.137804,0.1378 -0.34451,0.27561 -0.206706,0.10335 -0.413412,0.2067 -0.206706,0.0689 -0.310058,0.10336 -0.275608,-1.48139 -0.413412,-2.68718 -0.103353,-1.24023 -0.172255,-2.44602 -0.03445,-1.20578 -0.103353,-2.54937 -0.03445,-1.37804 -0.137804,-3.10059 z"
         style="font-style:normal;font-variant:normal;font-weight:normal;font-stretch:normal;font-size:35.2778px;font-family:'Waiting for the Sunrise';-inkscape-font-specification:'Waiting for the Sunrise';stroke-width:0.264583"
         id="path32" />
      <path
         d="m 79.650282,145.62189 q -0.654569,0.24115 -1.205784,-0.10336 -0.516765,-0.37896 -0.930177,-1.10243 -0.413412,-0.75792 -0.72347,-1.68809 -0.310059,-0.96463 -0.482314,-1.89481 -0.172255,-0.93018 -0.241157,-1.6881 -0.03445,-0.75792 0.03445,-1.10243 0,-0.34451 0.03445,-1.06798 0.03445,-0.72347 0.0689,-1.61919 0.03445,-0.93018 0.0689,-1.89481 0.0689,-0.99908 0.103353,-1.92925 0.03445,-0.93018 0.0689,-1.6192 0.03445,-0.72347 0.03445,-1.06798 0.0689,0 0.103353,-0.0344 l 0.103353,-0.0344 q 0.344509,0 0.585666,0.31006 0.241157,0.31006 0.413412,0.58566 0,0.48232 -0.03445,1.72255 0,1.24024 0,2.65273 0,1.41249 0,2.68717 0.03445,1.24024 0.03445,1.72255 0.03445,0.41342 0.137804,1.30914 0.137804,0.86128 0.34451,1.79145 0.206706,0.89573 0.551215,1.65365 0.378961,0.72347 0.930177,0.82682 1.446941,0 2.411568,-1.06798 0.999079,-1.06798 1.653647,-2.68717 0.654569,-1.6192 1.03353,-3.47955 0.413411,-1.89481 0.689019,-3.54845 0.275608,-1.65365 0.482314,-2.75608 0.241157,-1.13688 0.551215,-1.24024 l 0.826824,0.17226 1.929255,13.33253 q 0.206706,0.10335 0.344509,0.31005 0.137804,0.20671 0.241157,0.44787 0.137804,0.24115 0.172255,0.48231 0.0689,0.24116 0.0689,0.34451 -0.0689,0.24116 -0.413412,0.51677 -0.344509,0.2756 -0.585666,0.31005 h -0.137804 q -0.03445,0 -0.0689,0 -0.0689,-0.10335 -0.206706,-0.31005 -0.103353,-0.24116 -0.241157,-0.48232 -0.137804,-0.24115 -0.241157,-0.48231 -0.0689,-0.27561 -0.103353,-0.34451 -0.103353,-0.34451 -0.241156,-1.06798 -0.103353,-0.72347 -0.206706,-1.58475 -0.103353,-0.89572 -0.206706,-1.86035 -0.0689,-0.99908 -0.172255,-1.8948 -0.0689,-0.93018 -0.172255,-1.6192 -0.0689,-0.72347 -0.172255,-1.06798 -0.172255,0.79237 -0.482314,1.8948 -0.310058,1.06798 -0.792372,2.27377 -0.447863,1.20578 -1.033529,2.37712 -0.585667,1.13688 -1.343588,2.13596 -0.723471,0.96462 -1.619196,1.65364 -0.895726,0.65457 -1.963706,0.82683 z"
         style="font-style:normal;font-variant:normal;font-weight:normal;font-stretch:normal;font-size:35.2778px;font-family:'Waiting for the Sunrise';-inkscape-font-specification:'Waiting for the Sunrise';stroke-width:0.264583"
         id="path34" />
      <path
         d="m 90.915754,142.69355 q 0,-1.86035 0.72347,-3.75515 0.757922,-1.92926 1.998157,-3.5829 1.240235,-1.65365 2.82498,-2.92834 1.619196,-1.30913 3.272843,-1.9637 0,-1.03353 -0.103353,-2.03261 -0.103353,-0.99908 -0.241157,-1.99816 -0.137804,-1.03353 -0.275608,-2.06706 -0.137804,-1.03353 -0.172255,-2.13596 0,-0.34451 0.241157,-0.48231 0.275608,-0.1378 0.551216,-0.1378 0.206706,0 0.482316,0.0689 0.31006,0.0344 0.34451,0.37896 l 2.34266,21.56631 q 0,0 -0.0689,0.1378 -0.0689,0.10336 -0.2067,0.24116 -0.13781,0.10335 -0.27561,0.24116 -0.13781,0.10335 -0.20671,0.17225 0,0.0344 -0.10335,0.0689 -0.0689,0 -0.10335,0 -0.41342,-0.2756 -0.65457,-1.10243 -0.20671,-0.86127 -0.34451,-1.86035 -0.10335,-1.03353 -0.20671,-1.99816 -0.0689,-0.96462 -0.17225,-1.48139 -0.0689,0.27561 -0.31006,0.93018 -0.20671,0.65457 -0.620119,1.51584 -0.413412,0.86128 -0.999078,1.757 -0.585667,0.89573 -1.37804,1.65365 -0.792372,0.75792 -1.825901,1.27468 -1.03353,0.48232 -2.273765,0.48232 -0.620118,0 -1.06798,-0.24116 -0.413412,-0.24116 -0.68902,-0.65457 -0.241157,-0.44786 -0.378961,-0.96462 -0.103352,-0.55122 -0.103352,-1.10244 z m 1.584745,-0.65456 q 0,0.1378 0.03445,0.48231 0.03445,0.31006 0.137804,0.65457 0.137804,0.34451 0.275608,0.62012 0.172255,0.24115 0.378961,0.24115 0.757921,-0.0689 1.619196,-0.65457 0.895725,-0.62011 1.722549,-1.55029 0.826823,-0.93018 1.550294,-2.06706 0.757921,-1.17133 1.240235,-2.34267 0.516765,-1.17133 0.689024,-2.27376 0.17225,-1.10243 -0.0345,-1.8948 -0.137799,-0.27561 -0.241152,-0.34451 -0.103353,-0.10336 -0.310059,-0.10336 -1.515843,0 -2.82498,0.93018 -1.309137,0.93018 -2.273765,2.34267 -0.930176,1.37804 -1.446941,2.99723 -0.516764,1.6192 -0.516764,2.96279 z"
         style="font-style:normal;font-variant:normal;font-weight:normal;font-stretch:normal;font-size:35.2778px;font-family:'Waiting for the Sunrise';-inkscape-font-specification:'Waiting for the Sunrise';stroke-width:0.264583"
         id="path36" />
      <path
         d="m 104.45498,140.41979 q 0,-0.68902 0,-1.8259 0.0345,-1.17134 0.17226,-2.48047 0.1378,-1.34359 0.41341,-2.72163 0.27561,-1.37804 0.79237,-2.48047 0.51677,-1.10243 1.30914,-1.79145 0.79237,-0.68902 1.96371,-0.68902 1.61919,0 2.58382,0.89572 0.99908,0.89573 1.51584,2.23932 0.55122,1.30914 0.72347,2.82498 0.20671,1.48139 0.20671,2.68717 0,1.30914 -0.37896,2.82498 -0.37896,1.51585 -1.17133,2.79053 -0.79238,1.27469 -1.99816,2.13596 -1.17133,0.82683 -2.82498,0.82683 -1.06798,0 -1.72255,-0.48232 -0.65457,-0.51676 -0.99908,-1.27468 -0.31006,-0.75792 -0.44786,-1.6881 -0.13781,-0.93018 -0.13781,-1.79145 z m 1.17134,-0.41341 q 0,0.65457 0.0344,1.37804 0.0345,0.68902 0.20671,1.30913 0.17225,0.62012 0.62011,0.99908 0.44787,0.37896 1.30914,0.37896 1.51584,0 2.48047,-0.68902 0.99908,-0.68902 1.58475,-1.757 0.58566,-1.10243 0.79237,-2.41156 0.24115,-1.30914 0.24115,-2.51493 0,-0.75792 -0.1378,-1.9637 -0.10335,-1.20579 -0.48231,-2.34267 -0.37896,-1.13688 -1.10243,-1.92925 -0.72347,-0.82683 -1.89481,-0.82683 -0.82682,0 -1.44694,0.65457 -0.58567,0.65457 -0.99908,1.6881 -0.41341,1.03353 -0.65457,2.27376 -0.2067,1.24024 -0.34451,2.37712 -0.1378,1.13688 -0.17225,2.06706 -0.0344,0.93018 -0.0344,1.30914 z"
         style="font-style:normal;font-variant:normal;font-weight:normal;font-stretch:normal;font-size:35.2778px;font-family:'Waiting for the Sunrise';-inkscape-font-specification:'Waiting for the Sunrise';stroke-width:0.264583"
         id="path38" />
    </g>
  </g>
</svg>
