<?xml version="1.0" encoding="UTF-8" standalone="no"?>
<svg
   xmlns:dc="http://purl.org/dc/elements/1.1/"
   xmlns:cc="http://creativecommons.org/ns#"
   xmlns:rdf="http://www.w3.org/1999/02/22-rdf-syntax-ns#"
   xmlns:svg="http://www.w3.org/2000/svg"
   xmlns="http://www.w3.org/2000/svg"
   xmlns:xlink="http://www.w3.org/1999/xlink"
   xmlns:sodipodi="http://sodipodi.sourceforge.net/DTD/sodipodi-0.dtd"
   xmlns:inkscape="http://www.inkscape.org/namespaces/inkscape"
   width="420"
   height="194.10001"
   viewBox="0 0 111.12499 51.355628"
   version="1.1"
   id="svg8"
   inkscape:version="1.0.2 (e86c870879, 2021-01-15)"
   sodipodi:docname="tudo_rainbow_bold.svg"
   inkscape:export-filename="/home/cachapa/Desktop/tudo.png"
   inkscape:export-xdpi="96"
   inkscape:export-ydpi="96">
  <defs
     id="defs2">
    <linearGradient
       inkscape:collect="always"
       id="linearGradient18">
      <stop
         style="stop-color:#e60000;stop-opacity:1"
         offset="0"
         id="stop853" />
      <stop
         style="stop-color:#ff9600;stop-opacity:1"
         offset="0.16666667"
         id="stop855" />
      <stop
         style="stop-color:#f0dc00;stop-opacity:1"
         offset="0.33333334"
         id="stop849" />
      <stop
         style="stop-color:#00c822;stop-opacity:1"
         offset="0.5"
         id="stop845" />
      <stop
         style="stop-color:#00d2ff;stop-opacity:1"
         offset="0.66666669"
         id="stop847" />
      <stop
         style="stop-color:#0046ff;stop-opacity:1"
         offset="0.83333331"
         id="stop857" />
      <stop
         style="stop-color:#ea00ff;stop-opacity:1"
         offset="1"
         id="stop16" />
    </linearGradient>
    <linearGradient
       inkscape:collect="always"
       xlink:href="#linearGradient18"
       id="linearGradient20"
       x1="32.733643"
       y1="123.19559"
       x2="164.28169"
       y2="123.19559"
       gradientUnits="userSpaceOnUse"
       gradientTransform="matrix(0.80452282,0,0,0.80452282,-23.689082,-76.468481)" />
  </defs>
  <sodipodi:namedview
     id="base"
     pagecolor="#ffffff"
     bordercolor="#666666"
     borderopacity="1.0"
     inkscape:pageopacity="0.0"
     inkscape:pageshadow="2"
     inkscape:zoom="0.49497475"
     inkscape:cx="230.89879"
     inkscape:cy="622.68244"
     inkscape:document-units="mm"
     inkscape:current-layer="layer1"
     inkscape:document-rotation="0"
     showgrid="false"
     units="px"
     inkscape:snap-bbox="true"
     inkscape:snap-intersection-paths="true"
     inkscape:bbox-paths="true"
     inkscape:window-width="1920"
     inkscape:window-height="1163"
     inkscape:window-x="0"
     inkscape:window-y="0"
     inkscape:window-maximized="1" />
  <metadata
     id="metadata5">
    <rdf:RDF>
      <cc:Work
         rdf:about="">
        <dc:format>image/svg+xml</dc:format>
        <dc:type
           rdf:resource="http://purl.org/dc/dcmitype/StillImage" />
        <dc:title></dc:title>
      </cc:Work>
    </rdf:RDF>
  </metadata>
  <g
     inkscape:label="Layer 1"
     inkscape:groupmode="layer"
     id="layer1">
    <path
       id="text12"
       style="font-style:normal;font-weight:normal;font-size:67.3963px;line-height:1.25;font-family:sans-serif;fill:url(#linearGradient20);fill-opacity:1;stroke:none;stroke-width:0.264584"
       d="m 80.935547,2.1191406 c -0.942885,-0.026775 -2.05085,0.5634029 -2.008839,1.6272221 0.128383,4.662895 1.218205,9.2879823 1.461964,13.8766843 -0.04582,0.516802 0.174761,1.20965 -0.04723,1.626714 -4.914281,2.142946 -9.026567,5.88845 -12.096539,10.243324 -2.925586,4.263527 -5.013008,9.395849 -4.590551,14.647236 0.164783,1.927731 1.101774,4.077369 3.077239,4.719427 1.910795,0.544014 3.988881,0.163698 5.811332,-0.532341 4.019528,-1.736718 6.780388,-5.427001 8.642977,-9.265605 0.418752,-0.862291 0.810574,-1.740743 1.122698,-2.64774 0.321559,2.9323 0.432221,5.940687 1.382812,8.75586 0.308294,0.675922 0.73499,1.520452 1.488282,1.707031 0.749397,0.06173 1.136183,-0.729691 1.703124,-1.089844 0.498416,-0.442944 0.831533,-1.067168 0.601207,-1.737114 C 85.995267,30.431844 84.542353,16.807894 83.03125,3.1933594 82.826748,2.2247108 81.73618,2.1641017 80.935547,2.1191406 Z m -64.894531,1.578125 c -0.912066,-0.072821 -1.655539,0.7214358 -1.63182,1.6142722 -0.205776,3.101472 0.457765,6.1739062 0.860058,9.2347492 0.567858,3.183566 0.955662,6.431948 0.603793,9.662697 0.05588,0.579866 -0.859259,0.401848 -1.249874,0.617427 -2.860016,0.667604 -5.7430158,1.251189 -8.5997355,1.921636 -1.2034694,0.0028 -2.7272731,-0.326882 -3.6035156,0.726562 -0.615138,1.04059 -0.3496431,2.82098 0.9722155,3.163228 1.468839,0.386614 3.0378319,0.09135 4.4905907,-0.249658 2.1595079,-0.537834 4.2942759,-1.334479 6.4111219,-1.77803 0.78869,-0.148439 1.593176,-0.169941 2.39365,-0.16093 0.338653,5.430108 0.279507,10.889795 0.932327,16.296229 0.206093,1.496289 0.464109,2.984256 0.739548,4.469396 1.171316,-0.397461 2.660891,-0.787324 3.162109,-2.048828 0.192531,-1.353428 -0.0043,-2.746348 -0.06228,-4.109318 -0.295639,-3.085639 -0.823523,-6.156448 -0.77498,-9.267398 -0.04642,-2.06528 0.0595,-4.127174 0.06383,-6.191644 2.734163,-0.551575 5.666771,-0.98874 8.472636,-1.527735 2.161894,-0.39421 4.327354,-0.801654 6.435567,-1.429296 -0.159214,3.615546 -0.283339,7.238271 -0.455078,10.849609 0.208698,3.509722 0.966814,7.028796 2.460937,10.22461 0.727007,1.429489 1.692788,3.071403 3.369141,3.466797 1.106121,0.186991 2.185514,-0.269761 3.240234,-0.542969 3.175646,-1.154078 5.345329,-3.974234 7.091038,-6.732131 1.965451,-3.229176 3.294614,-6.799731 4.468928,-10.37892 0.177351,-0.548143 0.318177,-1.106677 0.469331,-1.662387 0.488443,4.453261 0.737341,8.940671 1.497379,13.359275 0.232809,1.311886 0.635216,2.588477 1.337677,3.727531 0.250606,0.430336 0.471659,1.130182 0.950882,1.241319 1.179368,0.0974 2.269265,-0.783287 2.815024,-1.764182 0.23748,-0.621491 -0.09907,-1.329194 -0.300181,-1.935036 -0.323465,-0.635584 -0.605276,-1.350176 -1.220703,-1.763672 -1.234241,-8.529316 -2.469555,-17.058478 -3.703125,-25.587891 -0.736248,-0.105082 -1.500495,-0.401468 -2.218649,-0.395474 -1.055597,0.566991 -1.171274,1.934686 -1.440089,2.982889 -0.967044,5.220757 -1.672575,10.510405 -3.164694,15.61694 -0.987981,3.158404 -2.33701,6.423503 -4.953911,8.580801 -0.991626,0.698758 -2.278169,1.172917 -3.486499,0.954874 -1.268238,-0.692145 -1.511435,-2.292419 -1.952378,-3.540027 -0.73606,-2.893278 -1.166931,-5.829864 -1.128571,-8.809078 -0.04281,-3.162763 -0.03313,-6.349395 -0.0068,-9.498347 0.656824,-0.474237 0.815956,-1.508539 0.103501,-2.010545 -0.241518,-0.542495 -0.01498,-1.268438 -0.06951,-1.886702 -0.01457,-0.631012 0.171791,-1.321683 -0.353044,-1.801521 -0.48013,-0.794526 -1.294478,-1.761751 -2.334313,-1.470499 -0.644063,0.02485 -0.759151,0.371304 -0.668631,0.991071 -0.01872,0.991615 -0.07693,1.982053 -0.113548,2.973118 -5.020629,0.770399 -9.840386,2.450711 -14.785156,3.56836 -0.529854,0.08046 -1.374721,0.445511 -1.206901,-0.431586 C 19.153902,16.908793 18.452284,10.842869 17.680825,4.7897045 17.542882,4.0756915 16.699349,3.7165453 16.041016,3.6972656 Z M 98.302734,15.167969 c -2.173189,0.08624 -4.01861,1.524098 -5.172887,3.285602 -2.280018,3.436787 -2.819524,7.644329 -3.318501,11.645254 -0.389695,3.486105 -0.468542,7.009789 -0.25953,10.510377 0.254043,2.603581 0.759832,5.510478 2.893944,7.271465 1.819198,1.531317 4.431905,1.400379 6.614237,0.899531 3.041373,-0.772971 5.404813,-3.159277 7.014753,-5.756864 2.47007,-4.109495 3.2941,-9.075549 2.78692,-13.808273 -0.28325,-3.487048 -0.94941,-7.061414 -2.85062,-10.058891 -1.23218,-1.910299 -3.11492,-3.554278 -5.43672,-3.867511 -0.750199,-0.11952 -1.512846,-0.165018 -2.271596,-0.12069 z m 1.404297,3.367187 c 2.100439,0.132415 3.461039,2.014895 4.275719,3.763376 1.26093,2.851085 1.47474,6.070186 1.59733,9.18389 -0.0866,2.977997 -0.40077,5.999888 -1.69368,8.720038 -1.22474,2.57435 -3.74116,4.697517 -6.681209,4.792163 -1.306929,0.141656 -2.922681,-0.0042 -3.62316,-1.295404 -0.967622,-1.907782 -0.764844,-4.13848 -0.82521,-6.214023 0.02827,-3.848126 0.487347,-7.613473 1.211607,-11.384199 0.603636,-2.433273 1.338186,-5.0408 3.19901,-6.830093 0.687927,-0.615853 1.634501,-0.846805 2.539593,-0.735748 z m -18.964843,6.03711 c 0.703386,0.393694 0.564018,1.40694 0.633813,2.105854 -0.03709,3.5186 -1.706593,7.002148 -3.482018,9.938018 -1.841646,2.906927 -4.097286,5.870829 -7.130311,7.653393 -0.659373,0.328117 -1.390408,0.700774 -2.134766,0.654297 -1.111499,-1.48977 -1.043285,-3.519747 -0.803109,-5.28633 0.550728,-3.585044 1.939076,-7.024238 4.159542,-9.938464 2.117585,-2.702222 5.122083,-5.237745 8.756849,-5.126768 z" />
  </g>
</svg>
