<?xml version="1.0" encoding="UTF-8" standalone="no"?>
<svg
   xmlns:dc="http://purl.org/dc/elements/1.1/"
   xmlns:cc="http://creativecommons.org/ns#"
   xmlns:rdf="http://www.w3.org/1999/02/22-rdf-syntax-ns#"
   xmlns:svg="http://www.w3.org/2000/svg"
   xmlns="http://www.w3.org/2000/svg"
   xmlns:sodipodi="http://sodipodi.sourceforge.net/DTD/sodipodi-0.dtd"
   xmlns:inkscape="http://www.inkscape.org/namespaces/inkscape"
   style="display:inline"
   inkscape:export-ydpi="192"
   inkscape:export-xdpi="192"
   inkscape:export-filename="/home/cachapa/Desktop/icon_fg.png"
   sodipodi:docname="icon_fg.svg"
   inkscape:version="1.0.1 (3bc2e813f5, 2020-09-07)"
   version="1.1"
   id="svg2"
   height="500"
   width="500"
   enable-background="new">
  <defs
     id="defs4" />
  <sodipodi:namedview
     id="base"
     pagecolor="#646464"
     bordercolor="#666666"
     borderopacity="1.0"
     inkscape:pageopacity="0"
     inkscape:pageshadow="2"
     inkscape:zoom="2.0000002"
     inkscape:cx="128.91534"
     inkscape:cy="190.93038"
     inkscape:document-units="px"
     inkscape:current-layer="svg2"
     showgrid="false"
     showguides="true"
     inkscape:guide-bbox="true"
     inkscape:window-width="1920"
     inkscape:window-height="1136"
     inkscape:window-x="0"
     inkscape:window-y="27"
     inkscape:window-maximized="1"
     inkscape:object-nodes="false"
     inkscape:object-paths="false"
     inkscape:snap-intersection-paths="false"
     inkscape:snap-smooth-nodes="false"
     inkscape:snap-midpoints="true"
     inkscape:snap-nodes="false"
     inkscape:snap-page="true"
     inkscape:snap-global="true"
     inkscape:snap-bbox="true"
     inkscape:bbox-nodes="false"
     inkscape:bbox-paths="true"
     inkscape:pagecheckerboard="true"
     inkscape:showpageshadow="false"
     inkscape:snap-others="false"
     inkscape:document-rotation="0">
    <sodipodi:guide
       position="256,442.01725"
       orientation="-1,0"
       id="guide85"
       inkscape:label=""
       inkscape:locked="false"
       inkscape:color="rgb(0,0,255)" />
    <sodipodi:guide
       position="227.56248,244"
       orientation="0,1"
       id="guide87"
       inkscape:label=""
       inkscape:locked="false"
       inkscape:color="rgb(0,0,255)" />
  </sodipodi:namedview>
  <metadata
     id="metadata7">
    <rdf:RDF>
      <cc:Work
         rdf:about="">
        <dc:format>image/svg+xml</dc:format>
        <dc:type
           rdf:resource="http://purl.org/dc/dcmitype/StillImage" />
        <dc:title />
      </cc:Work>
    </rdf:RDF>
  </metadata>
  <g
     aria-label="t"
     id="text80"
     style="font-size:40px;line-height:1.25;font-family:'Waiting for the Sunrise';-inkscape-font-specification:'Waiting for the Sunrise';opacity:1;fill:#ffffff"
     transform="matrix(10.445486,0,0,10.445486,-1687.5952,-1560.1749)">
    <path
       d="m 183.84053,174.93842 q -0.85937,0 -1.71875,0.23437 -0.85937,0.23438 -1.71875,0.50781 -0.82031,0.23438 -1.67969,0.46875 -0.82031,0.19532 -1.71875,0.19532 -0.50781,0 -0.82031,-0.19532 -0.3125,-0.19531 -0.3125,-0.78125 0,-0.46875 0.23438,-0.625 0.27343,-0.19531 0.625,-0.19531 0.39062,-0.0391 0.78125,0 0.42968,0.0391 0.66406,-0.0391 0.3125,-0.0781 1.13281,-0.27344 0.85938,-0.19531 1.79688,-0.39062 0.9375,-0.19532 1.75781,-0.39063 0.85937,-0.19531 1.17187,-0.3125 0,-0.11719 0,-0.39062 0.0391,-0.3125 0.0391,-0.625 0.0391,-0.35157 0.0391,-0.625 v -0.42969 q 0,-1.17188 -0.15625,-2.26563 -0.15625,-1.13281 -0.35156,-2.26562 -0.15625,-1.13281 -0.3125,-2.26563 -0.15625,-1.13281 -0.15625,-2.26562 0,-0.39063 0.0781,-0.74219 0.11719,-0.39062 0.625,-0.39062 0.19531,0 0.39063,0.11718 0.23437,0.0781 0.27343,0.35157 l 1.36719,11.28906 q 0.0391,0.0391 0.0781,0.0391 h 0.11718 q 0.39063,0 1.21094,-0.19531 0.82031,-0.19531 1.83594,-0.46875 1.01562,-0.27344 2.14844,-0.58594 1.17187,-0.3125 2.22656,-0.54687 1.05469,-0.27344 1.91406,-0.39063 0.85938,-0.15625 1.32813,-0.0391 0.15625,0.0391 0.50781,0.39062 0.35156,0.3125 0.42969,0.46875 0.0781,0.39063 -0.66407,0.78125 -0.74218,0.35157 -1.95312,0.70313 -1.17188,0.3125 -2.61719,0.58594 -1.44531,0.27343 -2.77344,0.50781 -1.28906,0.19531 -2.22656,0.39062 -0.9375,0.15625 -1.13281,0.23438 v 0.78125 q 0,0.50781 -0.0391,1.13281 0,0.58594 0,1.13281 v 0.78125 q 0,1.99219 0.27343,3.90625 0.27344,1.875 0.27344,3.78907 0,0.27343 -0.15625,0.46875 -0.15625,0.15625 -0.39062,0.3125 -0.23438,0.11718 -0.46875,0.23437 -0.23438,0.0781 -0.35157,0.11719 -0.3125,-1.67969 -0.46875,-3.04688 -0.11718,-1.40625 -0.19531,-2.77343 -0.0391,-1.36719 -0.11719,-2.89063 -0.0391,-1.5625 -0.15625,-3.51562 z"
       id="path82"
       style="fill:#ffffff" />
  </g>
</svg>
